<svg width="512" height="512" viewBox="0 0 512 512" xmlns="http://www.w3.org/2000/svg">
  <defs>
    <linearGradient id="g" x1="0%" y1="100%" x2="100%" y2="0%">
      <stop offset="0%" stop-color="#0A3D8F"/>
      <stop offset="45%" stop-color="#0A84D6"/>
      <stop offset="100%" stop-color="#21E6FF"/>
    </linearGradient>
    <linearGradient id="gd" x1="0%" y1="0%" x2="100%" y2="100%">
      <stop offset="0%" stop-color="#0A3D8F"/>
      <stop offset="100%" stop-color="#0A6FC2"/>
    </linearGradient>
    <linearGradient id="gc" x1="0%" y1="100%" x2="100%" y2="0%">
      <stop offset="0%" stop-color="#16B8E8"/>
      <stop offset="100%" stop-color="#5BF2FF"/>
    </linearGradient>
    <radialGradient id="bgr" cx="50%" cy="38%" r="75%">
      <stop offset="0%" stop-color="#0c2347"/>
      <stop offset="60%" stop-color="#06122a"/>
      <stop offset="100%" stop-color="#04070f"/>
    </radialGradient>
  </defs>

  <rect width="512" height="512" rx="112" fill="url(#bgr)"/>

  <g transform="translate(256,250)">
    <g fill="none" stroke-linecap="round">
      <rect x="-148" y="-56" width="296" height="112" rx="56"
            transform="rotate(-45)" stroke="url(#gd)" stroke-width="32"/>
      <rect x="-148" y="-56" width="296" height="112" rx="56"
            transform="rotate(45)" stroke="url(#gc)" stroke-width="32"/>
    </g>

    <g transform="translate(0,-148)">
      <polygon points="0,-46 26,-14 0,4 -26,-14" fill="#6FE9FF"/>
      <polygon points="-26,-14 0,4 0,40 -16,30" fill="#0A3D8F"/>
      <polygon points="26,-14 0,4 0,40 16,30" fill="#1AA6E6"/>
    </g>
    <g transform="translate(0,148) scale(1,-1)">
      <polygon points="0,-46 26,-14 0,4 -26,-14" fill="#6FE9FF"/>
      <polygon points="-26,-14 0,4 0,40 -16,30" fill="#1AA6E6"/>
      <polygon points="26,-14 0,4 0,40 16,30" fill="#0A3D8F"/>
    </g>

    <circle cx="0" cy="0" r="45" fill="#F4FBFF"/>
    <circle cx="0" cy="0" r="45" fill="none" stroke="url(#g)" stroke-width="8"/>
    <circle cx="0" cy="0" r="16" fill="#0A2E6B"/>
  </g>
</svg>
